<?xml version="1.0" encoding="utf-8"?>
<!-- Generator: Adobe Illustrator 18.0.0, SVG Export Plug-In . SVG Version: 6.00 Build 0)  -->
<!DOCTYPE svg PUBLIC "-//W3C//DTD SVG 1.1//EN" "http://www.w3.org/Graphics/SVG/1.1/DTD/svg11.dtd">
<svg version="1.1" id="Layer_1" xmlns="http://www.w3.org/2000/svg" xmlns:xlink="http://www.w3.org/1999/xlink" x="0px" y="0px"
	 viewBox="0 0 109 200.4" enable-background="new 0 0 109 200.4" xml:space="preserve">
<g>
	<ellipse fill-rule="evenodd" clip-rule="evenodd" fill="#B8B8B8" cx="54.9" cy="191.7" rx="44.3" ry="4.9"/>
	<g>
		<path fill-rule="evenodd" clip-rule="evenodd" fill="#010101" d="M25,148.2c-0.3,2.3-0.2,4.3,0.6,6.4c0.5,1.3,1,2.5,1.5,3.8
			c1,3-0.3,5.1-3.4,5.4c-1.1,0.1-1.3,0.6-1.3,1.5c-0.1,2.3-0.6,4.4-2.2,6.2c-1.4,1.6-3.1,1.8-5,1.2c-1.8-0.5-2.8-1.6-3.2-3.6
			c-0.8-4.9-0.6-9.8-0.9-14.7c-0.3-4.2-0.6-8.5-0.8-12.7c-0.3-7.4-0.5-14.7-0.7-22.1c-0.1-4.3-0.3-8.6-0.4-12.8c0-1-0.3-1.9-1-2.6
			c-1.5-1.7-1.7-3.6-1.1-5.7c0.4-1.7,1.2-3.3,1.9-5.1c-1.2-0.2-2.4-0.5-3.5-0.7c-0.8-0.2-1.3-0.6-1.3-1.4c0-9.3,0.5-18.5,4.6-27.1
			C15,51.1,24.2,40.7,37.5,34.2c3.8-1.8,7.9-2.8,12.1-3.2c2-0.2,2-0.2,1.9-2.1c-0.1-3.2-0.3-6.5-0.3-9.7c0-0.6-0.2-0.9-0.7-1.1
			c-2.3-1.3-3.5-3.3-3.8-6c-0.6-4.1,3.2-7.6,6.6-8.3c1.7-0.3,3.3-0.2,4.9,0.4c5.2,2,6.5,8.6,2.5,12.9c-0.1,0.2-0.3,0.3-0.4,0.4
			c-1.8,0.9-1.7,2.4-1.6,4c0.2,2.8,0.3,5.6,0.4,8.3c0,0.8,0.3,1.1,1.1,1.2c4.6,0.6,9.1,1.7,13.1,4c10.7,5.9,18.9,14.4,24.9,25
			c4.8,8.5,6.4,17.8,6.5,27.4c0,1.1,0.1,2.2,0.2,3.4c0.1,1.4-0.1,1.7-1.6,2c-1.2,0.2-2.5,0.5-3.7,0.6c-0.9,0.1-0.9,0.3-0.5,1
			c1.1,1.8,1.7,3.8,1.8,6c0,1.5-0.3,2.8-1.4,3.9c-0.9,1-1.1,2.2-1.1,3.5c-0.4,15.5-0.7,30.9-1.6,46.3c-0.3,4.7-0.6,9.4-0.9,14
			c-0.2,2.6-1.3,4-3.6,4.6c-2.3,0.6-4-0.1-5.5-2.2c-1.1-1.5-1.3-3.2-1.4-4.9c-0.1-1.1-0.3-1.8-1.6-1.9c-0.6-0.1-1.3-0.4-1.9-0.7
			c-1.6-0.8-2.1-2-1.6-3.7c0.5-1.5,1.1-3.1,1.6-4.6c0.7-1.9,1.1-3.8,0.7-5.9c-0.1-0.6-0.3-0.7-0.8-0.5c-2,0.5-3.9,1.1-5.9,1.6
			c-0.8,0.2-0.7,0.7-0.7,1.2c0.1,4.1,0.2,8.2,0.3,12.3c0.1,3.9,0.2,7.8,0.3,11.7c0,1.4,0.5,2.5,1.7,3.3c3.8,2.6,4.8,6.6,4.9,10.9
			c0,1.2-0.9,1.6-2,1.9c-3.1,0.8-6.2,1.1-9.4,1.2c-4.4,0.1-8.7-0.1-13-0.9c-1.7-0.3-2-0.7-1.8-2.3c0.4-4.7,2.1-8.7,5.9-11.6
			c1.2-0.9,1.3-1.9,1.3-3.2c-0.2-5-0.3-10-0.5-15c-0.1-2.8-0.2-5.6-0.3-8.3c0-0.6-0.2-0.8-0.8-0.8c-5.3-0.2-10.6-0.3-16-0.1
			c-0.7,0-1,0.2-1,1c0.1,4.7,0.2,9.3,0.3,14c0.1,3.4,0.2,6.7,0.3,10.1c0,1.3,0.5,2.3,1.6,3.1c3.9,2.6,5,6.6,5,10.9
			c0,1.1-0.8,1.6-1.8,1.9c-3.1,0.8-6.3,1.2-9.5,1.2c-4.4,0.1-8.7-0.1-13-0.9c-1.7-0.3-2-0.6-1.8-2.3c0.4-4.7,2-8.8,6-11.7
			c0.9-0.7,1.2-1.4,1.2-2.6c-0.3-7.9-0.5-15.8-0.7-23.7c0-0.7-0.2-1.1-1.1-1.3C29.4,149.5,27.3,148.8,25,148.2z"/>
		<path fill-rule="evenodd" clip-rule="evenodd" fill="#24D3AA" d="M53.4,94.7c-12-0.1-25.5-0.9-39-2.7c-2.2-0.3-4.5-0.6-6.7-0.8
			c-1-0.1-1.5-0.4-1.5-1.6c0-13.3,2.9-25.7,11.4-36.3c5.5-6.9,12-12.8,20-16.8c6.2-3.1,12.9-3.9,19.8-3.5
			c10.7,0.6,19.2,5.5,26.8,12.6c6.6,6.1,11.6,13.4,15,21.7c2,4.9,2.8,10.1,3.2,15.3c0.2,2.4,0.2,4.7,0.4,7.1
			c0.1,1.1-0.5,1.2-1.2,1.3c-4.8,0.8-9.5,1.5-14.3,2C76.5,94.1,65.8,94.7,53.4,94.7z"/>
		<path fill-rule="evenodd" clip-rule="evenodd" fill="#24D3AA" d="M85.1,124.2c0,5.6,0,11.2-1,16.8c-0.6,3.4-2.2,5.4-5.7,6.2
			c-3.1,0.7-6.2,0.9-9.3,0.9c-10.7,0-21.5,0-32.2,0c-2.3,0-4.6-0.2-6.8-0.6c-4.8-0.9-6.5-2.7-7.3-7.5c-0.6-3.5-0.8-7-0.8-10.6
			c0-5.3-0.3-10.6,0.1-16c1.2-0.7,2.4-0.1,3.5-0.1c2.8,0.1,5.5,0.4,8.3,0.4c11.6,0,23.3,0.1,34.9,0c4.4,0,8.7-0.2,13.1-0.7
			c3.1-0.3,3.2-0.2,3.2,2.8C85.2,118.7,85.4,121.5,85.1,124.2z"/>
		<path fill-rule="evenodd" clip-rule="evenodd" fill="#117699" d="M98.1,97.3c0.4,0.9,0.6,1.9,0.6,2.9c0.1,1.7-0.6,3-2,3.9
			c-2.7,1.8-5.9,2.2-9,2.7c-10.9,1.5-21.9,1.4-32.9,1.2c-8.1-0.2-16.2,0.1-24.3-0.2c-5-0.2-9.9-0.8-14.8-1.8c-1-0.2-2.1-0.7-3.1-1
			c-3.1-1.1-4.8-3.1-3-7.7c0.6-0.5,1.2-0.2,1.8-0.1c1.3,0.3,2.7,0.7,4,0.9c7.9,1.7,15.9,2.6,24,2.5c3.3,0,6.7,0.1,10,0
			c5.5-0.2,11-0.2,16.4-0.6c8.4-0.6,16.9-1.1,25.3-2.2c1.7-0.2,3.4-0.5,5-0.8C96.9,96.9,97.5,96.8,98.1,97.3z"/>
		<path fill-rule="evenodd" clip-rule="evenodd" fill="#0C576B" d="M98.1,97.3c-2,0-3.8,0.5-5.8,0.8c-2.7,0.4-5.4,0.7-8.1,0.9
			c-3.8,0.3-7.6,0.6-11.4,1c-2.4,0.2-4.7,0.4-7.1,0.5c-4.2,0.2-8.4,0.1-12.6,0.3c-5.8,0.4-11.5,0.1-17.3,0.2
			c-3.4,0.1-6.7-0.7-10-0.9c-4.2-0.3-8.4-1.2-12.5-2.1c-1.2-0.3-2.4-0.7-3.6-0.8c0.8-2.1,2-3,4.2-3c3.3,0,6.5,0.5,9.8,0.9
			c5.2,0.5,10.3,0.9,15.5,1.2c8.3,0.5,16.6,0.6,24.9,0.4c7.1-0.2,14.2-0.8,21.2-1.6c2.7-0.3,5.4-0.6,8.1-0.8
			C95.7,94.1,97.3,95.1,98.1,97.3z"/>
		<path fill-rule="evenodd" clip-rule="evenodd" fill="#07684A" d="M85.1,124.2c0-3.1-0.1-6.2,0-9.4c0-1.1-0.2-1.5-1.4-1.4
			c-5.6,0.5-11.3,0.8-16.9,0.8c-11.7,0-23.5,0-35.2,0c-3.1,0-6.3-0.4-9.4-0.7c0-1.1,0-2.2,0-3.2c0-0.6,0.1-1,1-0.9
			c7.1,0.4,14.1,0.6,21.2,0.7c11.4,0.2,22.7-0.1,34.1-0.4c1.9-0.1,3.7-0.2,5.6-0.3c0.6,0,1,0,1,0.7c0.4,4.7,0.3,9.3,0.2,14
			C85.3,124.1,85.2,124.2,85.1,124.2z"/>
		<path fill-rule="evenodd" clip-rule="evenodd" fill="#24D3AA" d="M37.8,190.5c-2.8-0.1-5.6-0.4-8.4-0.7c-0.9-0.1-1.1-0.5-0.9-1.3
			c0.3-1.5,0.5-2.9,1.1-4.3c2.2-5.6,9-7.9,14.7-5.1c4,2,5.8,5.3,6,9.6c0,0.8-0.4,0.9-1,1C45.5,190.3,41.7,190.6,37.8,190.5z"/>
		<path fill-rule="evenodd" clip-rule="evenodd" fill="#24D3AA" d="M70,190.5c-4-0.1-7.2-0.3-10.5-0.8c-0.4-0.1-0.8,0-0.9-0.7
			c-0.2-5,3.1-9.6,7.9-10.9c6.3-1.7,12.7,2.5,13.8,9.1c0.3,2,0.3,2-1.7,2.5C75.6,190.3,72.5,190.5,70,190.5z"/>
		<path fill-rule="evenodd" clip-rule="evenodd" fill="#24D3AA" d="M60.5,10.6c-0.1,4.3-1.7,6.2-5.4,6.2c-4.2-0.1-6.5-2.1-6.5-5.5
			c0-2.8,3.3-5.6,6.6-5.5C57.9,5.8,61,7.7,60.5,10.6z"/>
		<path fill-rule="evenodd" clip-rule="evenodd" fill="#24D3AA" d="M94.3,157.4c-0.2,3.6-0.4,7.2-0.6,10.8c-0.1,1.6-0.9,2.5-2.3,2.7
			c-1.4,0.2-2.3-0.3-3.1-1.8c-1.1-2-1-4.3-1.2-6.4c-0.1-0.5-0.1-1-0.3-1.5c-0.5-1.1-1.2-1.2-1.8-0.3c-0.4,0.6-0.7,1.1-1.5,0.6
			c-0.8-0.5-1.5-1-1.1-2c0.4-1.1,0.8-2.1,1.2-3.1c0.4-0.4,0.9-0.3,1.4-0.2c2.7,0.5,5.4,0.9,8.1,0.8C93.6,157,94,157.1,94.3,157.4z"
			/>
		<path fill-rule="evenodd" clip-rule="evenodd" fill="#24D3AA" d="M24.4,157.2c0.3,0.7,0.5,1.4,0.8,2.1c0.3,0.8,0.4,1.4-0.4,2
			c-0.8,0.5-1.3,0.5-2.1-0.1c-1.3-1-1.8-0.8-2.1,0.9c-0.2,1.6-0.3,3.1-0.4,4.7c-0.1,1.1-0.4,2.2-1.2,3.1c-0.9,1-1.9,1.5-3.2,1.1
			c-1.2-0.4-1.7-1.4-1.8-2.6c-0.3-2.8-0.5-5.5-0.5-8.3c-0.3-2.8-0.3-3,2.4-2.6c2.4,0.3,4.6-0.1,6.9-0.4
			C23.3,156.9,23.9,156.7,24.4,157.2z"/>
		<path fill-rule="evenodd" clip-rule="evenodd" fill="#40A087" d="M22.7,146.5c-3.2-0.1-6.3-0.3-9.3-0.4c-0.5,0-0.7-0.2-0.7-0.7
			c-0.1-1.6-0.2-3.2-0.4-4.8c-0.1-0.6,0.1-0.7,0.7-0.7c2.4,0.1,4.7,0.3,7.1,0.4c0.5,0,0.7,0.2,0.9,0.7
			C21.5,142.7,22.1,144.5,22.7,146.5z"/>
		<path fill-rule="evenodd" clip-rule="evenodd" fill="#40A087" d="M90.9,139.9c-1.2,0-2.3,0-3.5,0c-0.6,0-0.9-0.1-0.8-0.8
			c0.2-1.6,0.4-3.1,0.5-4.7c0-0.5,0.3-0.7,0.8-0.7c2.3-0.1,4.6-0.2,7-0.3c0.6,0,1,0,0.9,0.8c-0.1,1.5-0.2,3-0.2,4.5
			c0,0.8-0.4,1.1-1.2,1c-1.2,0-2.3,0-3.5,0C90.9,139.8,90.9,139.8,90.9,139.9z"/>
		<path fill-rule="evenodd" clip-rule="evenodd" fill="#40A087" d="M17.6,147.7c1.4,0.1,2.7,0.2,4.1,0.2c0.8,0,1,0.3,0.9,1
			c0,0.5,0,0.9,0,1.4c0,1.9,0,1.9-1.8,2.4c-2.3,0.6-4.6,0.6-6.9,0.3c-0.5-0.1-0.7-0.2-0.7-0.7c-0.1-1.4-0.2-2.7-0.3-4.1
			c-0.1-0.6,0.2-0.7,0.7-0.6C14.9,147.6,16.3,147.7,17.6,147.7C17.6,147.7,17.6,147.7,17.6,147.7z"/>
		<path fill-rule="evenodd" clip-rule="evenodd" fill="#40A087" d="M90,146.5c-1.3,0-2.7,0-4,0c-0.6,0-0.9-0.2-0.9-0.9
			c0-1.4,0.7-2.6,1.1-3.9c0.1-0.3,0.5-0.2,0.8-0.3c2.4-0.1,4.7-0.2,7.1-0.3c0.8,0,1.2,0.2,1.1,1c0,0,0,0.1,0,0.1
			c0.2,4.1,0.1,4.2-3.9,4.2C90.9,146.5,90.4,146.5,90,146.5z"/>
		<path fill-rule="evenodd" clip-rule="evenodd" fill="#40A087" d="M96.1,115.7c0,2.9,0,2.9-2.9,3.1c-1.6,0.1-3.2,0.2-4.8,0.3
			c-0.7,0.1-1.1-0.1-1-0.9c0.1-1.1,0-2.2,0-3.4c0-0.6,0.1-0.9,0.9-1c2.4-0.2,4.7-0.6,7-0.9c0.6-0.1,0.9,0,0.9,0.7
			C96.1,114.2,96.1,114.9,96.1,115.7z"/>
		<path fill-rule="evenodd" clip-rule="evenodd" fill="#40A087" d="M16.4,126.3c-1.3-0.1-2.6-0.1-3.8-0.3c-0.5-0.1-0.8-0.2-0.8-0.8
			c0-1.3,0-2.6,0-3.9c0-0.6,0.2-0.8,0.8-0.8c2.2-0.1,4.5,0.2,6.7,0.2c0.6,0,0.7,0.3,0.7,0.8c0,1.3,0,2.7,0,4c0,0.6-0.2,0.8-0.8,0.8
			C18.2,126.3,17.3,126.3,16.4,126.3z"/>
		<path fill-rule="evenodd" clip-rule="evenodd" fill="#40A087" d="M90,148.2c1.2,0,2.5,0.1,3.7,0c0.9-0.1,1.2,0.3,1.1,1.1
			c-0.1,1-0.2,2-0.3,3c0,0.4-0.2,0.6-0.7,0.7c-2.7,0.4-5.4,0.2-8-0.6c-0.6-0.2-0.7-0.5-0.8-1.1c-0.1-3.1-0.1-3.1,3.1-3.1
			C88.7,148.2,89.4,148.2,90,148.2z"/>
		<path fill-rule="evenodd" clip-rule="evenodd" fill="#40A087" d="M87.3,129.7c0-2.6,0-2.6,2.6-2.8c1.7-0.1,3.4-0.3,5.1-0.5
			c0.7-0.1,0.9,0.2,0.9,0.9c-0.1,1.2-0.1,2.3-0.1,3.5c0,0.8-0.3,1.2-1.2,1.2c-2,0-4,0.1-6,0.2c-1.1,0.1-1.5-0.3-1.3-1.4
			C87.4,130.5,87.3,130.1,87.3,129.7z"/>
		<path fill-rule="evenodd" clip-rule="evenodd" fill="#40A087" d="M93.3,120.2C96,120,96,120,96,122.7c0,2.1,0,2.1-2,2.4
			c-1.8,0.2-3.7,0.4-5.6,0.6c-0.6,0.1-0.9,0-1-0.7c-0.2-1.3,0-2.6,0-3.8c0-0.6,0.5-0.6,0.9-0.6C89.9,120.4,91.6,120.3,93.3,120.2z"
			/>
		<path fill-rule="evenodd" clip-rule="evenodd" fill="#40A087" d="M16.5,119.2c-1.4-0.1-2.7-0.2-4.1-0.2c-0.6,0-0.8-0.2-0.8-0.8
			c0-1,0-1.9,0-2.9c0-1.7,0-1.7,1.8-1.6c1.8,0.2,3.6,0.3,5.4,0.4c0.8,0,1.1,0.3,1,1.1c-0.1,1-0.1,1.9,0,2.9c0.1,0.9-0.3,1.1-1.2,1.1
			C18,119.2,17.3,119.3,16.5,119.2C16.5,119.2,16.5,119.2,16.5,119.2z"/>
		<path fill-rule="evenodd" clip-rule="evenodd" fill="#40A087" d="M12,129.9c0-2.4,0-2.4,2.4-2.3c1.6,0.1,3.1,0.2,4.7,0.3
			c0.7,0,0.9,0.3,0.9,1c0,0.4,0,0.7,0.1,1.1c0.2,2.9,0.2,2.9-2.7,2.8c-1.5-0.1-3.1-0.2-4.6-0.3c-0.6,0-0.8-0.2-0.8-0.8
			C12,131.1,12,130.5,12,129.9z"/>
		<path fill-rule="evenodd" clip-rule="evenodd" fill="#07684A" d="M17.9,112.7c-1.7-0.1-3.7-0.3-5.7-0.5c-0.5,0-0.7-0.2-0.7-0.7
			c0-1.2,0.1-2.5,0.1-3.7c0-0.6,0.1-0.7,0.7-0.6c2.4,0.6,4.8,1.1,7.3,1.6c0.5,0.1,0.7,0.3,0.7,0.9c0,0.4,0,0.8,0,1.2
			C20.1,112.8,20.1,112.8,17.9,112.7z"/>
		<path fill-rule="evenodd" clip-rule="evenodd" fill="#40A087" d="M39.2,161.4c1.1,0,2.2,0,3.4,0c0.6,0,0.8,0.2,0.8,0.8
			c0,1.1,0,2.2,0.1,3.2c0.1,0.7-0.2,0.9-0.8,0.9c-2.2-0.1-4.4-0.1-6.6-0.1c-0.6,0-0.8-0.2-0.8-0.8c0-1.1,0-2.2-0.1-3.2
			c0-0.6,0.2-0.7,0.7-0.7C36.9,161.4,38.1,161.4,39.2,161.4z"/>
		<path fill-rule="evenodd" clip-rule="evenodd" fill="#40A087" d="M69.5,171.9c-0.1,0-0.3,0-0.4,0c-3.8,0-3.8,0-3.5-3.9
			c0-0.6,0.3-0.8,0.8-0.8c2.1-0.1,4.2-0.2,6.3-0.3c0.6,0,0.8,0.1,0.8,0.7c0,1.2,0,2.3,0,3.5c0,0.6-0.3,0.8-0.8,0.8
			C71.7,171.9,70.6,171.9,69.5,171.9z"/>
		<path fill-rule="evenodd" clip-rule="evenodd" fill="#40A087" d="M17.7,138.7c-1.1-0.1-2.9-0.2-4.6-0.3c-0.7,0-1-0.3-0.9-1
			c0-0.2,0-0.3,0-0.5c-0.2-3.2-0.2-3.1,3-2.9c1.3,0.1,2.6,0.2,3.8,0.2c1,0,1.4,0.4,1.4,1.4c0,0.3,0,0.6,0.1,0.9
			C20.7,138.7,20.7,138.7,17.7,138.7z"/>
		<path fill-rule="evenodd" clip-rule="evenodd" fill="#40A087" d="M68.5,159.9c-0.4,0-0.8,0.1-1.1,0c-0.6-0.1-1.6,0.5-1.9-0.3
			c-0.5-1.3-0.6-2.7,0-4c0.1-0.3,0.5-0.2,0.8-0.2c2,0,4.1,0,6.1,0c0.7,0,0.8,0.3,0.9,0.9c0.4,3.4,0.4,3.4-3,3.6
			C69.6,159.9,69.1,159.9,68.5,159.9C68.5,159.9,68.5,159.9,68.5,159.9z"/>
		<path fill-rule="evenodd" clip-rule="evenodd" fill="#40A087" d="M39.1,159.8c-1.1,0-2.2,0-3.2,0c-0.5,0-0.7-0.2-0.7-0.7
			c0-0.5,0-1.1,0-1.6c0-1.9,0-1.9,1.9-2c1.7,0,3.4,0,5.1,0c0.7,0,0.9,0.2,0.9,0.9c0.2,3.5,0.2,3.5-3.3,3.5
			C39.6,159.8,39.3,159.8,39.1,159.8C39.1,159.8,39.1,159.8,39.1,159.8z"/>
		<path fill-rule="evenodd" clip-rule="evenodd" fill="#07684A" d="M96.1,109.2c0,0.2,0,0.5,0,0.7c0.2,1.2-0.4,1.5-1.4,1.6
			c-2.1,0.2-4.2,0.5-6.3,0.7c-0.9,0.1-1.3-0.2-1.3-1.1c0-0.3,0-0.6,0-0.9c-0.2-1,0.3-1.3,1.2-1.5c2.2-0.4,4.4-0.9,6.7-1.5
			c0.9-0.2,1.3-0.1,1.2,0.9C96.1,108.5,96.1,108.8,96.1,109.2z"/>
		<path fill-rule="evenodd" clip-rule="evenodd" fill="#40A087" d="M69.5,165.4c-1,0-2.1,0-3.1,0c-0.7,0-0.9-0.1-1-0.9
			c-0.1-3.1-0.2-3.1,2.9-3.2c1.4-0.1,2.8-0.1,4.2-0.2c0.7-0.1,0.9,0.1,0.9,0.9c0.1,3.4,0.1,3.4-3.2,3.4
			C70,165.4,69.7,165.4,69.5,165.4z"/>
		<path fill-rule="evenodd" clip-rule="evenodd" fill="#40A087" d="M39.4,167.8c1.1,0,2.2,0,3.2,0c0.5,0,0.8,0.1,0.8,0.7
			c0,0,0,0.1,0,0.1c0.3,2.7,0.3,2.7-2.5,2.9c-1.6,0.1-3.2,0-4.8-0.1c-0.5,0-0.8-0.2-0.7-0.8c0,0,0-0.1,0-0.1
			c-0.2-2.8-0.2-2.8,2.7-2.8C38.5,167.8,39,167.8,39.4,167.8z"/>
		<path fill-rule="evenodd" clip-rule="evenodd" fill="#07684A" d="M38.8,154c-0.8,0-1.7-0.1-2.5,0c-1.3,0.2-1.6-0.4-1.6-1.5
			c0-2.4-0.6-2,2-2.2c1.7-0.1,3.3,0,5,0c0.8,0,1.2,0.2,1.2,1.1c0,2.6,0,2.6-2.5,2.6C39.9,154,39.3,154,38.8,154z"/>
		<path fill-rule="evenodd" clip-rule="evenodd" fill="#07684A" d="M24.4,157.2c-1.2,0-2.3,0.2-3.4,0.5c-2.2,0.5-4.4,0.2-6.6-0.1
			c-0.9-0.1-1,0.2-0.9,0.9c0,0.5,0,1,0,1.5c-0.4-1.4-0.1-2.8-0.2-4.2c0-0.5,0.4-0.5,0.8-0.6c2.9-0.2,5.8-0.4,8.7-0.6
			c0.5,0,0.8,0.1,0.9,0.6C23.8,155.8,24.1,156.5,24.4,157.2z"/>
		<path fill-rule="evenodd" clip-rule="evenodd" fill="#07684A" d="M69.1,153.7c-1.1,0-2.2,0-3.2,0c-0.5,0-0.8-0.2-0.7-0.7
			c0-0.1,0-0.2,0-0.2c0-3-0.4-2.4,2.4-2.5c1.5,0,3,0,4.5,0c0.8,0,1.1,0.2,1.1,1c0,2.4,0.1,2.4-2.4,2.4
			C70.2,153.7,69.6,153.7,69.1,153.7C69.1,153.7,69.1,153.7,69.1,153.7z"/>
		<path fill-rule="evenodd" clip-rule="evenodd" fill="#40A087" d="M39.5,176.1c-1,0-2.1,0-3.1,0c-0.7,0-0.9-0.2-0.9-0.9
			c0-2.1-0.1-2.1,2-2.1c1.7,0,3.4,0,5.1,0c0.8,0,1.1,0.3,1,1.1c0,0.2,0,0.5,0,0.7c0.1,1-0.2,1.3-1.2,1.2
			C41.4,176.1,40.4,176.1,39.5,176.1z"/>
		<path fill-rule="evenodd" clip-rule="evenodd" fill="#07684A" d="M94.3,157.4c-3.6,0.2-7.1-0.4-10.7-1c0.1-0.3,0.2-0.5,0.3-0.8
			c0.2-0.9,0.7-1.2,1.7-1c2.2,0.3,4.5,0.4,6.8,0.6C94.6,155.3,94.6,154.9,94.3,157.4z"/>
		<path fill-rule="evenodd" clip-rule="evenodd" fill="#40A087" d="M69.7,176.1c-1.1,0-2.2,0-3.2,0c-1.4,0-0.6-1.2-0.8-1.8
			c-0.2-0.6,0.1-0.9,0.8-0.9c2.1,0,4.2,0,6.3,0c1.3,0,1,0.9,1.1,1.7c0.1,0.8-0.3,1.1-1.1,1C71.8,176.1,70.7,176.1,69.7,176.1z"/>
		<path fill-rule="evenodd" clip-rule="evenodd" fill="#117699" d="M56.6,24.3c0.1,1.8,0.2,3.6,0.3,5.4c0.1,0.8-0.1,1.2-1.1,1.1
			c-2.1-0.1-2.1-0.1-2.2-2.2c-0.1-1.5-0.3-3-0.2-4.6C54.6,23.5,55.6,23.6,56.6,24.3z"/>
		<path fill-rule="evenodd" clip-rule="evenodd" fill="#0C576B" d="M56.6,24.3c-1.1-0.1-2.1-0.4-3.2-0.2c0-1.4,0-2.8,0-4.2
			c0-0.7,0.2-1,1-1c2,0,2,0,2.1,1.9C56.6,21.9,56.6,23.1,56.6,24.3z"/>
		<path fill-rule="evenodd" clip-rule="evenodd" fill="#020102" d="M78.5,58.4c7.8,0.1,13.2,6.2,13.1,14.7c-0.1,7-6,12-13.8,11.9
			c-6.7-0.1-12.5-5.8-12.3-12.2C65.6,64.3,71,58.3,78.5,58.4z"/>
		<path fill-rule="evenodd" clip-rule="evenodd" fill="#020102" d="M30.5,58.4c7.5-0.1,12.9,5.9,13.3,13.9
			c0.3,6.2-5.4,12.8-13.6,12.6c-6.6-0.1-12.5-5.4-12.5-11.6C17.6,64.5,22.8,58.5,30.5,58.4z"/>
		<path fill-rule="evenodd" clip-rule="evenodd" fill="#010101" d="M55,81.1c2.9,0,5.8,0,8.7,0c1.8,0,1.9,0.2,1.4,1.9
			c-1.1,3.5-3.7,5.3-7,6.3c-4.5,1.4-9.4,0.2-11.9-2.9c-0.8-1-1.4-2.1-1.8-3.3c-0.4-1.3,0.1-2,1.4-2C49,81.2,52,81.2,55,81.1
			C55,81.2,55,81.2,55,81.1z"/>
		<path fill-rule="evenodd" clip-rule="evenodd" fill="#010102" d="M44.6,141.5c-3.5-0.2-7.1,0.3-10.6-0.3c-4-0.7-4.1-0.9-4-4.8
			c0.1-4.5,0.1-9.1,0.1-13.6c0-2.6,0.1-2.8,2.7-2.9c11.7-0.5,23.4-1.3,35.1-0.9c1.7,0.1,3.5,0.2,5.2,0.4c2,0.3,2.7,1,2.8,3
			c0.3,4.4,0,8.9,0,13.3c0,1,0,2.1-0.2,3.1c-0.1,1.3-0.8,1.7-2,1.7c-5.2,0.2-10.5,0.3-15.7,0.5C53.5,141.4,49.1,141.6,44.6,141.5z"
			/>
		<path fill-rule="evenodd" clip-rule="evenodd" fill="#FDFDFD" d="M78.9,82.8c-5.5,0.1-10-3.1-11.1-7.5c-1.5-5.8,2-12.7,7.4-14.2
			c5.1-1.5,12.5,0.2,13.9,8.9c0.6,3.5,0.3,6.8-2.4,9.5C84.5,81.8,81.7,83,78.9,82.8z"/>
		<path fill-rule="evenodd" clip-rule="evenodd" fill="#FDFDFD" d="M30.8,82.8c-6.2,0.4-11.2-4.7-11.1-10.3
			c0.1-7,4.5-11.8,11.1-11.8c6.5,0,10.7,5,10.9,12.4C41.8,78,36.1,83.5,30.8,82.8z"/>
		<path fill-rule="evenodd" clip-rule="evenodd" fill="#40A087" d="M62.8,83.3c-1.7,2.8-4.1,4.1-7,4.4c-1.5,0.2-3.1,0.2-4.6-0.3
			c-1.2-0.4-2.2-1.1-3-2.1c-0.4-0.5-1.2-1.2-0.9-1.8c0.2-0.6,1.2-0.2,1.8-0.2c4.1,0,8.1,0,12.2,0C61.7,83.3,62.1,83.3,62.8,83.3z"/>
		<path fill-rule="evenodd" clip-rule="evenodd" fill="#117699" d="M52,139.2c-3.9,0.1-9.8,0.2-15.7,0.3c-0.1,0-0.2,0-0.4,0
			c-3.6-0.2-3.8-0.4-3.8-4c0-4,0.1-7.9,0-11.9c0-1.3,0.4-1.6,1.6-1.7c5.4-0.2,10.9-0.4,16.3-0.6c5.9-0.2,11.9-0.3,17.8-0.4
			c1.8,0,3.5,0.2,5.2,0.7c0.5,0.2,0.8,0.4,0.8,1c0.1,4.9,0.2,9.8-0.1,14.7c0,0.8-0.2,1.1-1.1,1.1C66.4,138.7,60.2,138.9,52,139.2z"
			/>
		<path fill-rule="evenodd" clip-rule="evenodd" fill="#010101" d="M78.4,79.8c-4.6,0-7.6-3.2-7.6-7.9c0-4.6,3.5-8.3,7.7-8.3
			c4.3,0,7.8,3.5,7.8,7.6C86.2,76,82.8,79.8,78.4,79.8z"/>
		<path fill-rule="evenodd" clip-rule="evenodd" fill="#010101" d="M22.9,72.1c0-4.8,3.3-8.5,7.6-8.5c4.3,0,7.8,3.3,7.8,7.5
			c0,4.9-3.3,8.6-7.7,8.6C26,79.8,23,76.7,22.9,72.1z"/>
		<path fill-rule="evenodd" clip-rule="evenodd" fill="#020303" d="M57.7,130.6c0,3.4-1.8,5.2-5.1,5.1c-3.1,0-5.1-2.1-5.1-5.2
			c0-3,2.4-5.3,5.5-5.3C56.1,125.2,57.7,127.1,57.7,130.6z"/>
		<path fill-rule="evenodd" clip-rule="evenodd" fill="#424242" d="M78.5,65.8c3.2,0,5.6,2.4,5.6,5.4c0,3.5-2.6,6.5-5.7,6.6
			c-3.4,0-5.6-2.2-5.6-5.7C72.9,68.4,75.2,65.8,78.5,65.8z"/>
		<path fill-rule="evenodd" clip-rule="evenodd" fill="#424242" d="M25.2,72c0-3.6,2.3-6.2,5.5-6.3c3.7,0,6.3,3.2,5.5,6.8
			c-0.5,2.3-1.6,4.3-4.1,4.9C28.8,78.4,24.7,76.5,25.2,72z"/>
		<path fill-rule="evenodd" clip-rule="evenodd" fill="#24D3AA" d="M55.7,130.5c0,2.1-1,3.2-2.9,3.2c-1.9,0-3.2-1.2-3.2-3.1
			c0-1.9,1.5-3.2,3.5-3.3C54.8,127.3,55.7,128.4,55.7,130.5z"/>
	</g>
</g>
</svg>
